<svg xmlns="http://www.w3.org/2000/svg" width="0" height="0" class="hidden">
  <symbol viewBox="0 0 21.25 21.25" id="search">
    <path fill="currentColor" d="M21,19.54l-4-4A9.57,9.57,0,1,0,15.56,17l4,4A1,1,0,0,0,21,21,1,1,0,0,0,21,19.54ZM2,9.56a7.56,7.56,0,1,1,12.92,5.31l0,0s0,0,0,0A7.54,7.54,0,0,1,2,9.56Z"/>
  </symbol>
  <symbol viewBox="0 0 13.08 13.08" id="plus">
    <path fill="currentColor" d="M12.08,5.54H7.54V1a1,1,0,0,0-2,0V5.54H1a1,1,0,0,0,0,2H5.54v4.54a1,1,0,0,0,2,0V7.54h4.54a1,1,0,0,0,0-2Z"/>
  </symbol>
  <symbol viewBox="0 0 15 12" id="burger">
    <path fill="currentColor" fill-rule="evenodd" d="M1 0h13a1 1 0 1 1 0 2H1a1 1 0 0 1 0-2zm0 5h13a1 1 0 0 1 0 2H1a1 1 0 1 1 0-2zm0 5h13a1 1 0 0 1 0 2H1a1 1 0 1 1 0-2z"/>
  </symbol>
  <symbol viewBox="0 0 20.67 21.45" id="close">
    <path fill="currentColor" d="M12.57,10.72l7.65-8A1.62,1.62,0,0,0,17.88.5L10.33,8.39,2.78.5A1.61,1.61,0,0,0,.45,2.73l7.65,8-7.65,8A1.61,1.61,0,0,0,.5,21,1.61,1.61,0,0,0,2.78,21l7.55-7.89L17.88,21a1.64,1.64,0,0,0,1.17.5,1.62,1.62,0,0,0,1.17-2.74Z"/>
  </symbol>
</svg>
